<svg width="21" height="21" viewBox="0 0 21 21" fill="none" xmlns="http://www.w3.org/2000/svg">
<path d="M10.5 20.125C15.8157 20.125 20.125 15.8157 20.125 10.5C20.125 5.18426 15.8157 0.875 10.5 0.875C5.18426 0.875 0.875 5.18426 0.875 10.5C0.875 15.8157 5.18426 20.125 10.5 20.125Z" stroke="#484848" stroke-width="1.75"/>
<path d="M15.1313 9.625H6.38135C5.8981 9.625 5.50635 10.0168 5.50635 10.5C5.50635 10.9832 5.8981 11.375 6.38135 11.375H15.1313C15.6146 11.375 16.0063 10.9832 16.0063 10.5C16.0063 10.0168 15.6146 9.625 15.1313 9.625Z" fill="#484848"/>
<path d="M11.6313 6.125V14.875C11.6313 15.3582 11.2396 15.75 10.7563 15.75C10.2731 15.75 9.88135 15.3582 9.88135 14.875V6.125C9.88135 5.64175 10.2731 5.25 10.7563 5.25C11.2396 5.25 11.6313 5.64175 11.6313 6.125Z" fill="#484848"/>
</svg>
