<svg width="24" height="25" viewBox="0 0 24 25" fill="none" xmlns="http://www.w3.org/2000/svg">
<path d="M10.8008 1L17.372 5.06456C17.7823 5.31833 17.9282 5.87034 17.698 6.29753L10.8008 19.0971V15.421L15.7957 6.15204L10.8008 3.06188V1Z" fill="#484848"/>
<path d="M17.5588 5.69568L21.3358 12.705C21.5673 13.1346 21.4313 13.683 21.0321 13.9299L9.16631 21.2703L10.8428 18.159L19.471 12.8216L16.5952 7.48404L17.5588 5.69568Z" fill="#484848"/>
<path fill-rule="evenodd" clip-rule="evenodd" d="M2 1.86572V17.1323C2 19.6121 3.87629 21.6224 6.19082 21.6224C8.50534 21.6224 10.3816 19.6121 10.3816 17.1323V1.86572H2Z" stroke="#484848" stroke-width="2.07407"/>
<path d="M6.19085 8.15188C7.11666 8.15188 7.86718 7.34776 7.86718 6.35582C7.86718 5.36388 7.11666 4.55975 6.19085 4.55975C5.26504 4.55975 4.51453 5.36388 4.51453 6.35582C4.51453 7.34776 5.26504 8.15188 6.19085 8.15188Z" fill="#484848"/>
<path d="M6.19085 13.5401C7.11666 13.5401 7.86718 12.736 7.86718 11.7441C7.86718 10.7521 7.11666 9.948 6.19085 9.948C5.26504 9.948 4.51453 10.7521 4.51453 11.7441C4.51453 12.736 5.26504 13.5401 6.19085 13.5401Z" fill="#484848"/>
<path d="M6.19085 18.9282C7.11666 18.9282 7.86718 18.1241 7.86718 17.1322C7.86718 16.1402 7.11666 15.3361 6.19085 15.3361C5.26504 15.3361 4.51453 16.1402 4.51453 17.1322C4.51453 18.1241 5.26504 18.9282 6.19085 18.9282Z" fill="#484848"/>
</svg>
