<svg width="22" height="20" viewBox="0 0 22 20" fill="none" xmlns="http://www.w3.org/2000/svg">
<path d="M6.32877 1.80822V4.82192H9.94521C9.94521 4.82192 15.3699 5.42466 17.7808 7.83562C19.9507 10.0055 20.1918 17.4795 20.1918 17.4795C20.1918 17.4795 19.589 8.43836 9.94521 8.43836C9.82466 8.43836 6.32877 8.43836 6.32877 8.43836V10.8493L1.80822 6.63014L6.32877 1.80822ZM6.32877 0C5.84658 0 5.36438 0.180837 5.00273 0.54248L0.482184 5.3644C0.180815 5.72604 0 6.2082 0 6.6904C0 7.17259 0.241096 7.59453 0.60274 7.95617L5.12329 12.1754C5.48493 12.4767 5.90685 12.6575 6.32877 12.6575C6.56986 12.6575 6.81097 12.5973 7.05206 12.537C7.71508 12.2356 8.13699 11.5726 8.13699 10.8493V10.2466H9.94521C17.7808 10.2466 18.3836 17.2986 18.3836 17.6C18.4438 18.5644 19.2274 19.2877 20.1918 19.2877H20.252C21.2164 19.2274 22 18.3836 22 17.4192C21.9397 16.0329 21.6383 9.10139 19.0466 6.56988C16.274 3.79728 10.7288 3.13425 10.126 3.0137C10.0657 3.0137 10.0055 3.0137 9.94521 3.0137H8.13699V1.80822C8.13699 1.08493 7.65478 0.421925 6.99177 0.120555C6.75067 0.0602813 6.56986 0 6.32877 0Z" fill="black"/>
</svg>
