<svg width="20" height="20" viewBox="0 0 20 20" fill="none" xmlns="http://www.w3.org/2000/svg">
<g clip-path="url(#clip0)">
<path d="M19 8.47364L17.6316 9.84208C17.6316 10.0526 17.6842 10.2631 17.6842 10.5263C17.6842 14.8947 14.1579 18.421 9.78948 18.421C5.42106 18.421 1.89474 14.8947 1.89474 10.5263C1.89474 6.15786 5.42106 2.63155 9.78948 2.63155C11.6842 2.63155 13.2632 3.10524 14.5263 4.15787L12.3158 4.47365C11.8947 4.52628 11.579 4.94734 11.6316 5.36839C11.6842 5.73681 12 6.0526 12.4211 6.0526C12.4737 6.0526 12.4737 6.0526 12.5263 6.0526L16.2105 5.52628C16.6316 5.47365 16.9474 5.05259 16.8947 4.63154L16.3684 0.947328C16.3158 0.526276 15.8947 0.210493 15.4737 0.263124C15.0526 0.315756 14.7368 0.736815 14.7895 1.15787L15 2.68416C13.579 1.63153 11.8421 1.0526 9.78948 1.0526C4.57895 1.0526 0.315796 5.31576 0.315796 10.5263C0.315796 15.7368 4.57895 20 9.78948 20C15 20 19.2632 15.7368 19.2632 10.5263C19.2105 9.84207 19.1053 9.15785 19 8.47364Z" fill="black"/>
</g>
<defs>
<clipPath id="clip0">
<rect width="19.4737" height="20" fill="white"/>
</clipPath>
</defs>
</svg>
